<?xml version="1.0" standalone="no"?>
<svg xmlns:xlink="http://www.w3.org/1999/xlink" id="wave" style="transform:rotate(0deg); transition: 0.3s" viewBox="0 0 1440 200" version="1.1" xmlns="http://www.w3.org/2000/svg"><defs><linearGradient id="sw-gradient-0" x1="0" x2="0" y1="1" y2="0"><stop stop-color="rgba(54, 208, 196, 1)" offset="0%"/><stop stop-color="rgba(54, 208, 196, 1)" offset="100%"/></linearGradient></defs><path style="transform:translate(0, 0px); opacity:1" fill="url(#sw-gradient-0)" d="M0,120L60,123.3C120,127,240,133,360,116.7C480,100,600,60,720,66.7C840,73,960,127,1080,150C1200,173,1320,167,1440,150C1560,133,1680,107,1800,106.7C1920,107,2040,133,2160,143.3C2280,153,2400,147,2520,123.3C2640,100,2760,60,2880,43.3C3000,27,3120,33,3240,46.7C3360,60,3480,80,3600,100C3720,120,3840,140,3960,143.3C4080,147,4200,133,4320,113.3C4440,93,4560,67,4680,70C4800,73,4920,107,5040,116.7C5160,127,5280,113,5400,90C5520,67,5640,33,5760,16.7C5880,0,6000,0,6120,20C6240,40,6360,80,6480,110C6600,140,6720,160,6840,140C6960,120,7080,60,7200,50C7320,40,7440,80,7560,93.3C7680,107,7800,93,7920,90C8040,87,8160,93,8280,96.7C8400,100,8520,100,8580,100L8640,100L8640,200L8580,200C8520,200,8400,200,8280,200C8160,200,8040,200,7920,200C7800,200,7680,200,7560,200C7440,200,7320,200,7200,200C7080,200,6960,200,6840,200C6720,200,6600,200,6480,200C6360,200,6240,200,6120,200C6000,200,5880,200,5760,200C5640,200,5520,200,5400,200C5280,200,5160,200,5040,200C4920,200,4800,200,4680,200C4560,200,4440,200,4320,200C4200,200,4080,200,3960,200C3840,200,3720,200,3600,200C3480,200,3360,200,3240,200C3120,200,3000,200,2880,200C2760,200,2640,200,2520,200C2400,200,2280,200,2160,200C2040,200,1920,200,1800,200C1680,200,1560,200,1440,200C1320,200,1200,200,1080,200C960,200,840,200,720,200C600,200,480,200,360,200C240,200,120,200,60,200L0,200Z"/><defs><linearGradient id="sw-gradient-1" x1="0" x2="0" y1="1" y2="0"><stop stop-color="rgba(255, 255, 255, 1)" offset="0%"/><stop stop-color="rgba(255, 255, 255, 1)" offset="100%"/></linearGradient></defs><path style="transform:translate(0, 50px); opacity:0.9" fill="url(#sw-gradient-1)" d="M0,180L60,170C120,160,240,140,360,113.3C480,87,600,53,720,36.7C840,20,960,20,1080,36.7C1200,53,1320,87,1440,103.3C1560,120,1680,120,1800,126.7C1920,133,2040,147,2160,150C2280,153,2400,147,2520,123.3C2640,100,2760,60,2880,40C3000,20,3120,20,3240,43.3C3360,67,3480,113,3600,110C3720,107,3840,53,3960,40C4080,27,4200,53,4320,76.7C4440,100,4560,120,4680,136.7C4800,153,4920,167,5040,146.7C5160,127,5280,73,5400,56.7C5520,40,5640,60,5760,60C5880,60,6000,40,6120,46.7C6240,53,6360,87,6480,96.7C6600,107,6720,93,6840,96.7C6960,100,7080,120,7200,126.7C7320,133,7440,127,7560,103.3C7680,80,7800,40,7920,40C8040,40,8160,80,8280,106.7C8400,133,8520,147,8580,153.3L8640,160L8640,200L8580,200C8520,200,8400,200,8280,200C8160,200,8040,200,7920,200C7800,200,7680,200,7560,200C7440,200,7320,200,7200,200C7080,200,6960,200,6840,200C6720,200,6600,200,6480,200C6360,200,6240,200,6120,200C6000,200,5880,200,5760,200C5640,200,5520,200,5400,200C5280,200,5160,200,5040,200C4920,200,4800,200,4680,200C4560,200,4440,200,4320,200C4200,200,4080,200,3960,200C3840,200,3720,200,3600,200C3480,200,3360,200,3240,200C3120,200,3000,200,2880,200C2760,200,2640,200,2520,200C2400,200,2280,200,2160,200C2040,200,1920,200,1800,200C1680,200,1560,200,1440,200C1320,200,1200,200,1080,200C960,200,840,200,720,200C600,200,480,200,360,200C240,200,120,200,60,200L0,200Z"/></svg>